<svg id="my-svg" width="100%" xmlns="http://www.w3.org/2000/svg" xmlns:xlink="http://www.w3.org/1999/xlink" class="flowchart" style="max-width: 1636.34px; background-color: transparent;" viewBox="0 0 1636.33935546875 278" role="graphics-document document" aria-roledescription="flowchart-v2"><style>#my-svg{font-family:"trebuchet ms",verdana,arial,sans-serif;font-size:16px;fill:#000000;}@keyframes edge-animation-frame{from{stroke-dashoffset:0;}}@keyframes dash{to{stroke-dashoffset:0;}}#my-svg .edge-animation-slow{stroke-dasharray:9,5!important;stroke-dashoffset:900;animation:dash 50s linear infinite;stroke-linecap:round;}#my-svg .edge-animation-fast{stroke-dasharray:9,5!important;stroke-dashoffset:900;animation:dash 20s linear infinite;stroke-linecap:round;}#my-svg .error-icon{fill:#552222;}#my-svg .error-text{fill:#552222;stroke:#552222;}#my-svg .edge-thickness-normal{stroke-width:1px;}#my-svg .edge-thickness-thick{stroke-width:3.5px;}#my-svg .edge-pattern-solid{stroke-dasharray:0;}#my-svg .edge-thickness-invisible{stroke-width:0;fill:none;}#my-svg .edge-pattern-dashed{stroke-dasharray:3;}#my-svg .edge-pattern-dotted{stroke-dasharray:2;}#my-svg .marker{fill:#666;stroke:#666;}#my-svg .marker.cross{stroke:#666;}#my-svg svg{font-family:"trebuchet ms",verdana,arial,sans-serif;font-size:16px;}#my-svg p{margin:0;}#my-svg .label{font-family:"trebuchet ms",verdana,arial,sans-serif;color:#000000;}#my-svg .cluster-label text{fill:#333;}#my-svg .cluster-label span{color:#333;}#my-svg .cluster-label span p{background-color:transparent;}#my-svg .label text,#my-svg span{fill:#000000;color:#000000;}#my-svg .node rect,#my-svg .node circle,#my-svg .node ellipse,#my-svg .node polygon,#my-svg .node path{fill:#eee;stroke:#999;stroke-width:1px;}#my-svg .rough-node .label text,#my-svg .node .label text,#my-svg .image-shape .label,#my-svg .icon-shape .label{text-anchor:middle;}#my-svg .node .katex path{fill:#000;stroke:#000;stroke-width:1px;}#my-svg .rough-node .label,#my-svg .node .label,#my-svg .image-shape .label,#my-svg .icon-shape .label{text-align:center;}#my-svg .node.clickable{cursor:pointer;}#my-svg .root .anchor path{fill:#666!important;stroke-width:0;stroke:#666;}#my-svg .arrowheadPath{fill:#333333;}#my-svg .edgePath .path{stroke:#666;stroke-width:1px;}#my-svg .flowchart-link{stroke:#666;fill:none;}#my-svg .edgeLabel{background-color:white;text-align:center;}#my-svg .edgeLabel p{background-color:white;}#my-svg .edgeLabel rect{opacity:0.5;background-color:white;fill:white;}#my-svg .labelBkg{background-color:rgba(255, 255, 255, 0.5);}#my-svg .cluster rect{fill:hsl(0, 0%, 98.9215686275%);stroke:#707070;stroke-width:1px;}#my-svg .cluster text{fill:#333;}#my-svg .cluster span{color:#333;}#my-svg div.mermaidTooltip{position:absolute;text-align:center;max-width:200px;padding:2px;font-family:"trebuchet ms",verdana,arial,sans-serif;font-size:12px;background:hsl(-160, 0%, 93.3333333333%);border:1px solid #707070;border-radius:2px;pointer-events:none;z-index:100;}#my-svg .flowchartTitleText{text-anchor:middle;font-size:18px;fill:#000000;}#my-svg rect.text{fill:none;stroke-width:0;}#my-svg .icon-shape,#my-svg .image-shape{background-color:white;text-align:center;}#my-svg .icon-shape p,#my-svg .image-shape p{background-color:white;padding:2px;}#my-svg .icon-shape .label rect,#my-svg .image-shape .label rect{opacity:0.5;background-color:white;fill:white;}#my-svg .label-icon{display:inline-block;height:1em;overflow:visible;vertical-align:-0.125em;}#my-svg .node .label-icon path{fill:currentColor;stroke:revert;stroke-width:revert;}#my-svg .node .neo-node{stroke:#999;}#my-svg [data-look="neo"].node rect,#my-svg [data-look="neo"].cluster rect,#my-svg [data-look="neo"].node polygon{stroke:url(#my-svg-gradient);filter:drop-shadow( 1px 2px 2px rgba(185,185,185,1));}#my-svg [data-look="neo"].swimlane.cluster rect{filter:none;}#my-svg [data-look="neo"].node path{stroke:url(#my-svg-gradient);stroke-width:1px;}#my-svg [data-look="neo"].node .outer-path{filter:drop-shadow( 1px 2px 2px rgba(185,185,185,1));}#my-svg [data-look="neo"].node .neo-line path{stroke:#999;filter:none;}#my-svg [data-look="neo"].node circle{stroke:url(#my-svg-gradient);filter:drop-shadow( 1px 2px 2px rgba(185,185,185,1));}#my-svg [data-look="neo"].node circle .state-start{fill:#000000;}#my-svg [data-look="neo"].icon-shape .icon{fill:url(#my-svg-gradient);filter:drop-shadow( 1px 2px 2px rgba(185,185,185,1));}#my-svg [data-look="neo"].icon-shape .icon-neo path{stroke:url(#my-svg-gradient);filter:drop-shadow( 1px 2px 2px rgba(185,185,185,1));}#my-svg :root{--mermaid-font-family:"trebuchet ms",verdana,arial,sans-serif;}#my-svg .start&gt;*{fill:rgb(15, 159, 118)!important;stroke:rgb(11, 122, 90)!important;color:rgb(255, 255, 255)!important;font-weight:600!important;}#my-svg .start span{fill:rgb(15, 159, 118)!important;stroke:rgb(11, 122, 90)!important;color:rgb(255, 255, 255)!important;font-weight:600!important;}#my-svg .start tspan{fill:rgb(255, 255, 255)!important;}#my-svg .ctrl&gt;*{fill:rgb(253, 240, 227)!important;stroke:rgb(180, 83, 9)!important;color:rgb(122, 57, 8)!important;}#my-svg .ctrl span{fill:rgb(253, 240, 227)!important;stroke:rgb(180, 83, 9)!important;color:rgb(122, 57, 8)!important;}#my-svg .ctrl tspan{fill:rgb(122, 57, 8)!important;}#my-svg .data&gt;*{fill:rgb(233, 246, 241)!important;stroke:rgb(11, 122, 90)!important;color:rgb(8, 64, 47)!important;}#my-svg .data span{fill:rgb(233, 246, 241)!important;stroke:rgb(11, 122, 90)!important;color:rgb(8, 64, 47)!important;}#my-svg .data tspan{fill:rgb(8, 64, 47)!important;}#my-svg .ext&gt;*{fill:rgb(238, 242, 247)!important;stroke:rgb(85, 100, 124)!important;color:rgb(34, 48, 63)!important;}#my-svg .ext span{fill:rgb(238, 242, 247)!important;stroke:rgb(85, 100, 124)!important;color:rgb(34, 48, 63)!important;}#my-svg .ext tspan{fill:rgb(34, 48, 63)!important;}</style><g><marker id="my-svg_flowchart-v2-pointEnd" class="marker flowchart-v2" viewBox="0 0 10 10" refX="5" refY="5" markerUnits="userSpaceOnUse" markerWidth="8" markerHeight="8" orient="auto"><path d="M 0 0 L 10 5 L 0 10 z" class="arrowMarkerPath" style="stroke-width: 1; stroke-dasharray: 1, 0;"/></marker><marker id="my-svg_flowchart-v2-pointStart" class="marker flowchart-v2" viewBox="0 0 10 10" refX="4.5" refY="5" markerUnits="userSpaceOnUse" markerWidth="8" markerHeight="8" orient="auto"><path d="M 0 5 L 10 10 L 10 0 z" class="arrowMarkerPath" style="stroke-width: 1; stroke-dasharray: 1, 0;"/></marker><marker id="my-svg_flowchart-v2-pointEnd-margin" class="marker flowchart-v2" viewBox="0 0 11.5 14" refX="11.5" refY="7" markerUnits="userSpaceOnUse" markerWidth="10.5" markerHeight="14" orient="auto"><path d="M 0 0 L 11.5 7 L 0 14 z" class="arrowMarkerPath" style="stroke-width: 0; stroke-dasharray: 1, 0;"/></marker><marker id="my-svg_flowchart-v2-pointStart-margin" class="marker flowchart-v2" viewBox="0 0 11.5 14" refX="1" refY="7" markerUnits="userSpaceOnUse" markerWidth="11.5" markerHeight="14" orient="auto"><polygon points="0,7 11.5,14 11.5,0" class="arrowMarkerPath" style="stroke-width: 0; stroke-dasharray: 1, 0;"/></marker><marker id="my-svg_flowchart-v2-circleEnd" class="marker flowchart-v2" viewBox="0 0 10 10" refX="11" refY="5" markerUnits="userSpaceOnUse" markerWidth="11" markerHeight="11" orient="auto"><circle cx="5" cy="5" r="5" class="arrowMarkerPath" style="stroke-width: 1; stroke-dasharray: 1, 0;"/></marker><marker id="my-svg_flowchart-v2-circleStart" class="marker flowchart-v2" viewBox="0 0 10 10" refX="-1" refY="5" markerUnits="userSpaceOnUse" markerWidth="11" markerHeight="11" orient="auto"><circle cx="5" cy="5" r="5" class="arrowMarkerPath" style="stroke-width: 1; stroke-dasharray: 1, 0;"/></marker><marker id="my-svg_flowchart-v2-circleEnd-margin" class="marker flowchart-v2" viewBox="0 0 10 10" refY="5" refX="12.25" markerUnits="userSpaceOnUse" markerWidth="14" markerHeight="14" orient="auto"><circle cx="5" cy="5" r="5" class="arrowMarkerPath" style="stroke-width: 0; stroke-dasharray: 1, 0;"/></marker><marker id="my-svg_flowchart-v2-circleStart-margin" class="marker flowchart-v2" viewBox="0 0 10 10" refX="-2" refY="5" markerUnits="userSpaceOnUse" markerWidth="14" markerHeight="14" orient="auto"><circle cx="5" cy="5" r="5" class="arrowMarkerPath" style="stroke-width: 0; stroke-dasharray: 1, 0;"/></marker><marker id="my-svg_flowchart-v2-crossEnd" class="marker cross flowchart-v2" viewBox="0 0 11 11" refX="12" refY="5.2" markerUnits="userSpaceOnUse" markerWidth="11" markerHeight="11" orient="auto"><path d="M 1,1 l 9,9 M 10,1 l -9,9" class="arrowMarkerPath" style="stroke-width: 2; stroke-dasharray: 1, 0;"/></marker><marker id="my-svg_flowchart-v2-crossStart" class="marker cross flowchart-v2" viewBox="0 0 11 11" refX="-1" refY="5.2" markerUnits="userSpaceOnUse" markerWidth="11" markerHeight="11" orient="auto"><path d="M 1,1 l 9,9 M 10,1 l -9,9" class="arrowMarkerPath" style="stroke-width: 2; stroke-dasharray: 1, 0;"/></marker><marker id="my-svg_flowchart-v2-crossEnd-margin" class="marker cross flowchart-v2" viewBox="0 0 15 15" refX="17.7" refY="7.5" markerUnits="userSpaceOnUse" markerWidth="12" markerHeight="12" orient="auto"><path d="M 1,1 L 14,14 M 1,14 L 14,1" class="arrowMarkerPath" style="stroke-width: 2.5;"/></marker><marker id="my-svg_flowchart-v2-crossStart-margin" class="marker cross flowchart-v2" viewBox="0 0 15 15" refX="-3.5" refY="7.5" markerUnits="userSpaceOnUse" markerWidth="12" markerHeight="12" orient="auto"><path d="M 1,1 L 14,14 M 1,14 L 14,1" class="arrowMarkerPath" style="stroke-width: 2.5; stroke-dasharray: 1, 0;"/></marker><g class="root"><g class="clusters"/><g class="edgePaths"><path d="M122.898,120L133.375,114.5C143.853,109,164.807,98,179.525,92.5C194.243,87,202.725,87,206.966,87L211.207,87" id="my-svg-L_SCOPE_F1_0" class="edge-thickness-normal edge-pattern-solid edge-thickness-normal edge-pattern-solid flowchart-link" style=";" data-edge="true" data-et="edge" data-id="L_SCOPE_F1_0" data-points="W3sieCI6MTIyLjg5ODMzNTQ1Njg0ODEsInkiOjEyMC4wMDAwMDAwMDAwMDAwMX0seyJ4IjoxODUuNzYxMjE1MjA5OTYwOTQsInkiOjg3fSx7IngiOjIxNS4yMDY1Mjc3MDk5NjA5NCwieSI6ODd9XQ==" data-look="classic" marker-end="url(#my-svg_flowchart-v2-pointEnd)"/><path d="M122.898,159L133.375,164.333C143.853,169.667,164.807,180.333,178.784,185.667C192.761,191,199.761,191,203.261,191L206.761,191" id="my-svg-L_SCOPE_F2_0" class="edge-thickness-normal edge-pattern-solid edge-thickness-normal edge-pattern-solid flowchart-link" style=";" data-edge="true" data-et="edge" data-id="L_SCOPE_F2_0" data-points="W3sieCI6MTIyLjg5ODMzNTQ1Njg0ODE0LCJ5IjoxNTl9LHsieCI6MTg1Ljc2MTIxNTIwOTk2MDk0LCJ5IjoxOTF9LHsieCI6MjEwLjc2MTIxNTIwOTk2MDk0LCJ5IjoxOTF9XQ==" data-look="classic" marker-end="url(#my-svg_flowchart-v2-pointEnd)"/><path d="M400.613,87L405.52,87C410.428,87,420.243,87,431.586,90.826C442.928,94.652,455.798,102.304,462.233,106.13L468.668,109.956" id="my-svg-L_F1_IDS_0" class="edge-thickness-normal edge-pattern-solid edge-thickness-normal edge-pattern-solid flowchart-link" style=";" data-edge="true" data-et="edge" data-id="L_F1_IDS_0" data-points="W3sieCI6NDAwLjYxMjc3NzcwOTk2MDk0LCJ5Ijo4N30seyJ4Ijo0MzAuMDU4MDkwMjA5OTYwOTQsInkiOjg3fSx7IngiOjQ3Mi4xMDY2MTc4NTQxOTE3LCJ5IjoxMTJ9XQ==" data-look="classic" marker-end="url(#my-svg_flowchart-v2-pointEnd)"/><path d="M405.058,191L409.225,191C413.391,191,421.725,191,432.326,187.174C442.928,183.348,455.798,175.696,462.233,171.87L468.668,168.044" id="my-svg-L_F2_IDS_0" class="edge-thickness-normal edge-pattern-solid edge-thickness-normal edge-pattern-solid flowchart-link" style=";" data-edge="true" data-et="edge" data-id="L_F2_IDS_0" data-points="W3sieCI6NDA1LjA1ODA5MDIwOTk2MDk0LCJ5IjoxOTF9LHsieCI6NDMwLjA1ODA5MDIwOTk2MDk0LCJ5IjoxOTF9LHsieCI6NDcyLjEwNjYxNzg1NDE5MTcsInkiOjE2Nn1d" data-look="classic" marker-end="url(#my-svg_flowchart-v2-pointEnd)"/><path d="M579.98,139L584.147,139C588.313,139,596.647,139,604.313,139C611.98,139,618.98,139,622.48,139L625.98,139" id="my-svg-L_IDS_LINES_0" class="edge-thickness-normal edge-pattern-solid edge-thickness-normal edge-pattern-solid flowchart-link" style=";" data-edge="true" data-et="edge" data-id="L_IDS_LINES_0" data-points="W3sieCI6NTc5Ljk3OTk2NTIwOTk2MDksInkiOjEzOX0seyJ4Ijo2MDQuOTc5OTY1MjA5OTYwOSwieSI6MTM5fSx7IngiOjYyOS45Nzk5NjUyMDk5NjA5LCJ5IjoxMzl9XQ==" data-look="classic" marker-end="url(#my-svg_flowchart-v2-pointEnd)"/><path d="M844.746,139L848.912,139C853.079,139,861.412,139,869.079,139C876.746,139,883.746,139,887.246,139L890.746,139" id="my-svg-L_LINES_TOT_0" class="edge-thickness-normal edge-pattern-solid edge-thickness-normal edge-pattern-solid flowchart-link" style=";" data-edge="true" data-et="edge" data-id="L_LINES_TOT_0" data-points="W3sieCI6ODQ0Ljc0NTU5MDIwOTk2MDksInkiOjEzOX0seyJ4Ijo4NjkuNzQ1NTkwMjA5OTYwOSwieSI6MTM5fSx7IngiOjg5NC43NDU1OTAyMDk5NjA5LCJ5IjoxMzl9XQ==" data-look="classic" marker-end="url(#my-svg_flowchart-v2-pointEnd)"/><path d="M1044.424,100L1057.658,89.167C1070.891,78.333,1097.357,56.667,1114.09,45.833C1130.824,35,1137.824,35,1141.324,35L1144.824,35" id="my-svg-L_TOT_C_0" class="edge-thickness-normal edge-pattern-solid edge-thickness-normal edge-pattern-solid flowchart-link" style=";" data-edge="true" data-et="edge" data-id="L_TOT_C_0" data-points="W3sieCI6MTA0NC40MjQzMDExNDc0NjEsInkiOjEwMH0seyJ4IjoxMTIzLjgyMzcxNTIwOTk2MSwieSI6MzV9LHsieCI6MTE0OC44MjM3MTUyMDk5NjEsInkiOjM1fV0=" data-look="classic" marker-end="url(#my-svg_flowchart-v2-pointEnd)"/><path d="M1098.824,139L1102.99,139C1107.157,139,1115.49,139,1125.084,139C1134.678,139,1145.532,139,1150.959,139L1156.386,139" id="my-svg-L_TOT_E_0" class="edge-thickness-normal edge-pattern-solid edge-thickness-normal edge-pattern-solid flowchart-link" style=";" data-edge="true" data-et="edge" data-id="L_TOT_E_0" data-points="W3sieCI6MTA5OC44MjM3MTUyMDk5NjEsInkiOjEzOX0seyJ4IjoxMTIzLjgyMzcxNTIwOTk2MSwieSI6MTM5fSx7IngiOjExNjAuMzg2MjE1MjA5OTYxLCJ5IjoxMzl9XQ==" data-look="classic" marker-end="url(#my-svg_flowchart-v2-pointEnd)"/><path d="M1044.424,178L1057.658,188.833C1070.891,199.667,1097.357,221.333,1118.536,232.167C1139.714,243,1155.605,243,1163.55,243L1171.496,243" id="my-svg-L_TOT_G_0" class="edge-thickness-normal edge-pattern-solid edge-thickness-normal edge-pattern-solid flowchart-link" style=";" data-edge="true" data-et="edge" data-id="L_TOT_G_0" data-points="W3sieCI6MTA0NC40MjQzMDExNDc0NjEsInkiOjE3OH0seyJ4IjoxMTIzLjgyMzcxNTIwOTk2MSwieSI6MjQzfSx7IngiOjExNzUuNDk1NTkwMjA5OTYxLCJ5IjoyNDN9XQ==" data-look="classic" marker-end="url(#my-svg_flowchart-v2-pointEnd)"/><path d="M1337.777,35L1341.944,35C1346.11,35,1354.444,35,1373.202,45.445C1391.96,55.891,1421.142,76.781,1435.734,87.226L1450.325,97.672" id="my-svg-L_C_INV_0" class="edge-thickness-normal edge-pattern-solid edge-thickness-normal edge-pattern-solid flowchart-link" style=";" data-edge="true" data-et="edge" data-id="L_C_INV_0" data-points="W3sieCI6MTMzNy43NzY4NDAyMDk5NjEsInkiOjM1fSx7IngiOjEzNjIuNzc2ODQwMjA5OTYxLCJ5IjozNX0seyJ4IjoxNDUzLjU3NzYyMTQ1OTk2MSwieSI6MTAwfV0=" data-look="classic" marker-end="url(#my-svg_flowchart-v2-pointEnd)"/><path d="M1326.214,139L1332.308,139C1338.402,139,1350.589,139,1360.183,139C1369.777,139,1376.777,139,1380.277,139L1383.777,139" id="my-svg-L_E_INV_0" class="edge-thickness-normal edge-pattern-solid edge-thickness-normal edge-pattern-solid flowchart-link" style=";" data-edge="true" data-et="edge" data-id="L_E_INV_0" data-points="W3sieCI6MTMyNi4yMTQzNDAyMDk5NjEsInkiOjEzOX0seyJ4IjoxMzYyLjc3Njg0MDIwOTk2MSwieSI6MTM5fSx7IngiOjEzODcuNzc2ODQwMjA5OTYxLCJ5IjoxMzl9XQ==" data-look="classic" marker-end="url(#my-svg_flowchart-v2-pointEnd)"/><path d="M1311.105,243L1319.717,243C1328.329,243,1345.553,243,1368.756,232.555C1391.96,222.109,1421.142,201.219,1435.734,190.774L1450.325,180.328" id="my-svg-L_G_INV_0" class="edge-thickness-normal edge-pattern-solid edge-thickness-normal edge-pattern-solid flowchart-link" style=";" data-edge="true" data-et="edge" data-id="L_G_INV_0" data-points="W3sieCI6MTMxMS4xMDQ5NjUyMDk5NjEsInkiOjI0M30seyJ4IjoxMzYyLjc3Njg0MDIwOTk2MSwieSI6MjQzfSx7IngiOjE0NTMuNTc3NjIxNDU5OTYxLCJ5IjoxNzh9XQ==" data-look="classic" marker-end="url(#my-svg_flowchart-v2-pointEnd)"/></g><g class="edgeLabels"><g class="edgeLabel"><g class="label" data-id="L_SCOPE_F1_0" transform="translate(0, 0)"><foreignObject width="0" height="0"><div xmlns="http://www.w3.org/1999/xhtml" class="labelBkg" style="display: table-cell; white-space: nowrap; line-height: 1.5; max-width: 200px; text-align: center;"><span class="edgeLabel"></span></div></foreignObject></g></g><g class="edgeLabel"><g class="label" data-id="L_SCOPE_F2_0" transform="translate(0, 0)"><foreignObject width="0" height="0"><div xmlns="http://www.w3.org/1999/xhtml" class="labelBkg" style="display: table-cell; white-space: nowrap; line-height: 1.5; max-width: 200px; text-align: center;"><span class="edgeLabel"></span></div></foreignObject></g></g><g class="edgeLabel"><g class="label" data-id="L_F1_IDS_0" transform="translate(0, 0)"><foreignObject width="0" height="0"><div xmlns="http://www.w3.org/1999/xhtml" class="labelBkg" style="display: table-cell; white-space: nowrap; line-height: 1.5; max-width: 200px; text-align: center;"><span class="edgeLabel"></span></div></foreignObject></g></g><g class="edgeLabel"><g class="label" data-id="L_F2_IDS_0" transform="translate(0, 0)"><foreignObject width="0" height="0"><div xmlns="http://www.w3.org/1999/xhtml" class="labelBkg" style="display: table-cell; white-space: nowrap; line-height: 1.5; max-width: 200px; text-align: center;"><span class="edgeLabel"></span></div></foreignObject></g></g><g class="edgeLabel"><g class="label" data-id="L_IDS_LINES_0" transform="translate(0, 0)"><foreignObject width="0" height="0"><div xmlns="http://www.w3.org/1999/xhtml" class="labelBkg" style="display: table-cell; white-space: nowrap; line-height: 1.5; max-width: 200px; text-align: center;"><span class="edgeLabel"></span></div></foreignObject></g></g><g class="edgeLabel"><g class="label" data-id="L_LINES_TOT_0" transform="translate(0, 0)"><foreignObject width="0" height="0"><div xmlns="http://www.w3.org/1999/xhtml" class="labelBkg" style="display: table-cell; white-space: nowrap; line-height: 1.5; max-width: 200px; text-align: center;"><span class="edgeLabel"></span></div></foreignObject></g></g><g class="edgeLabel"><g class="label" data-id="L_TOT_C_0" transform="translate(0, 0)"><foreignObject width="0" height="0"><div xmlns="http://www.w3.org/1999/xhtml" class="labelBkg" style="display: table-cell; white-space: nowrap; line-height: 1.5; max-width: 200px; text-align: center;"><span class="edgeLabel"></span></div></foreignObject></g></g><g class="edgeLabel"><g class="label" data-id="L_TOT_E_0" transform="translate(0, 0)"><foreignObject width="0" height="0"><div xmlns="http://www.w3.org/1999/xhtml" class="labelBkg" style="display: table-cell; white-space: nowrap; line-height: 1.5; max-width: 200px; text-align: center;"><span class="edgeLabel"></span></div></foreignObject></g></g><g class="edgeLabel"><g class="label" data-id="L_TOT_G_0" transform="translate(0, 0)"><foreignObject width="0" height="0"><div xmlns="http://www.w3.org/1999/xhtml" class="labelBkg" style="display: table-cell; white-space: nowrap; line-height: 1.5; max-width: 200px; text-align: center;"><span class="edgeLabel"></span></div></foreignObject></g></g><g class="edgeLabel"><g class="label" data-id="L_C_INV_0" transform="translate(0, 0)"><foreignObject width="0" height="0"><div xmlns="http://www.w3.org/1999/xhtml" class="labelBkg" style="display: table-cell; white-space: nowrap; line-height: 1.5; max-width: 200px; text-align: center;"><span class="edgeLabel"></span></div></foreignObject></g></g><g class="edgeLabel"><g class="label" data-id="L_E_INV_0" transform="translate(0, 0)"><foreignObject width="0" height="0"><div xmlns="http://www.w3.org/1999/xhtml" class="labelBkg" style="display: table-cell; white-space: nowrap; line-height: 1.5; max-width: 200px; text-align: center;"><span class="edgeLabel"></span></div></foreignObject></g></g><g class="edgeLabel"><g class="label" data-id="L_G_INV_0" transform="translate(0, 0)"><foreignObject width="0" height="0"><div xmlns="http://www.w3.org/1999/xhtml" class="labelBkg" style="display: table-cell; white-space: nowrap; line-height: 1.5; max-width: 200px; text-align: center;"><span class="edgeLabel"></span></div></foreignObject></g></g></g><g class="nodes"><g class="node default start" id="my-svg-flowchart-SCOPE-0" data-look="classic" transform="translate(84.38060760498047, 139)"><g class="basic label-container outer-path"><path d="M-56.890625 -19.5 C-16.084179124808074 -19.5, 24.722266750383852 -19.5, 56.890625 -19.5 C56.890625 -19.5, 56.890625 -19.5, 56.890625 -19.5 C57.15175437548107 -19.491626089185818, 57.41288375096213 -19.483252178371636, 58.1399942896239 -19.45993515863156 C58.49885467834402 -19.42531632852449, 58.857715067064134 -19.39069749841742, 59.384229652847864 -19.3399052695533 C59.81381235926904 -19.270453669042766, 60.24339506569022 -19.201002068532237, 60.61821825967676 -19.140403561325776 C61.078924749993384 -19.035250311301816, 61.539631240310015 -18.930097061277856, 61.83688938623539 -18.862249829261074 C62.17940672510866 -18.76059248099369, 62.52192406398193 -18.658935132726302, 63.035235251460605 -18.50658706670804 C63.2947138319902 -18.411096550479442, 63.5541924125198 -18.315606034250848, 64.2083315951478 -18.074876768247425 C64.65297797927862 -17.878045003959052, 65.09762436340944 -17.681213239670683, 65.35135791279238 -17.568892924097174 C65.73280510889057 -17.36989216622134, 66.11425230498875 -17.170891408345504, 66.45961726407678 -16.990714730406097 C66.75840804156114 -16.809586005205574, 67.05719881904548 -16.628457280005048, 67.5285555736057 -16.342718045390892 C67.8235548773625 -16.136939301404187, 68.11855418111931 -15.931160557417478, 68.55378034457871 -15.627565626425154 C68.81113943397186 -15.42232860124711, 69.06849852336501 -15.217091576069063, 69.53107870850187 -14.848196188198123 C69.84252794950373 -14.565346228015587, 70.15397719050559 -14.28249626783305, 70.45643473676799 -14.007812326905688 C70.70340990828764 -13.75279018527296, 70.95038507980729 -13.497768043640235, 71.32604594296865 -13.10986736009568 C71.57634243764124 -12.81585485517924, 71.82663893231384 -12.521842350262796, 72.13633890812658 -12.158051136245305 C72.40535098233725 -11.797599464307128, 72.67436305654793 -11.437147792368952, 72.88398396464063 -11.156274872382312 C73.02262435057598 -10.94328600942929, 73.16126473651131 -10.730297146476266, 73.56590887860425 -10.108655082055241 C73.7830839863399 -9.723038686906255, 74.00025909407557 -9.337422291757271, 74.1793114742735 -9.019496659696287 C74.35525745330688 -8.654141069592631, 74.53120343234023 -8.288785479488975, 74.72167114880834 -7.893275190886684 C74.86337282668526 -7.5432693069151036, 75.0050745045622 -7.193263422943522, 75.19075922997033 -6.734618561215508 C75.3340978718972 -6.3029054096429205, 75.47743651382407 -5.871192258070333, 75.58464813421489 -5.548287939305138 C75.66289792177538 -5.249887585664485, 75.74114770933589 -4.951487232023833, 75.90171928754556 -4.339158212148133 C75.99026979038211 -3.884470095237853, 76.07882029321866 -3.429781978327573, 76.14066977658177 -3.1121979531509023 C76.1745670583775 -2.8492973293186785, 76.20846434017322 -2.5863967054864547, 76.30051770250937 -1.872449005199798 C76.3315811190878 -1.388611218052197, 76.36264453566622 -0.904773430904596, 76.38060621591342 -0.6250057626472757 C76.38060621591342 -0.37231891625731356, 76.38060621591342 -0.11963206986735142, 76.38060621591342 0.625005762647271 C76.35163716309201 1.0762221437392747, 76.3226681102706 1.5274385248312783, 76.30051770250937 1.8724490051997846 C76.25384363191017 2.2344438799294366, 76.20716956131096 2.596438754659088, 76.14066977658177 3.1121979531508885 C76.04512321044574 3.6028093764855345, 75.9495766443097 4.09342079982018, 75.90171928754556 4.339158212148129 C75.78991629559067 4.765511476195359, 75.67811330363578 5.191864740242589, 75.58464813421489 5.548287939305125 C75.50118694606543 5.799659740276818, 75.41772575791597 6.051031541248511, 75.19075922997033 6.734618561215495 C75.01370934760682 7.171935193679967, 74.83665946524332 7.609251826144439, 74.72167114880834 7.893275190886679 C74.54768496297447 8.254561228478714, 74.3736987771406 8.61584726607075, 74.1793114742735 9.019496659696284 C73.97945452516261 9.374362910553273, 73.77959757605171 9.729229161410263, 73.56590887860425 10.108655082055236 C73.35656786218223 10.430259099213348, 73.1472268457602 10.75186311637146, 72.88398396464065 11.156274872382301 C72.63472516020119 11.490258962386957, 72.38546635576171 11.824243052391614, 72.13633890812659 12.158051136245302 C71.84487152975079 12.500425303849175, 71.55340415137499 12.842799471453047, 71.32604594296866 13.10986736009567 C71.00596410446586 13.440378137557483, 70.68588226596306 13.770888915019293, 70.45643473676799 14.007812326905684 C70.16154428472542 14.27562403307694, 69.86665383268286 14.543435739248197, 69.5310787085019 14.848196188198111 C69.26853917371984 15.05756448071636, 69.0059996389378 15.266932773234611, 68.55378034457871 15.627565626425152 C68.28742734678151 15.813361947453041, 68.02107434898431 15.999158268480928, 67.5285555736057 16.34271804539089 C67.31471052197344 16.472352172383385, 67.10086547034116 16.60198629937588, 66.45961726407678 16.990714730406093 C66.15420071908912 17.150050346297522, 65.84878417410147 17.30938596218895, 65.35135791279238 17.56889292409717 C64.94296631022232 17.749675772048477, 64.53457470765224 17.930458619999786, 64.2083315951478 18.07487676824742 C63.91356865927743 18.183352253406426, 63.618805723407064 18.291827738565434, 63.03523525146062 18.506587066708033 C62.77816494363429 18.58288418468131, 62.52109463580795 18.659181302654584, 61.83688938623541 18.86224982926107 C61.46807748765812 18.94642873838878, 61.09926558908082 19.030607647516486, 60.618218259676766 19.140403561325773 C60.26201268039733 19.19799211696815, 59.905807101117894 19.255580672610524, 59.38422965284788 19.3399052695533 C59.0954345344468 19.367764987298504, 58.806639416045726 19.395624705043712, 58.1399942896239 19.45993515863156 C57.71467276200165 19.473574392184272, 57.28935123437939 19.487213625736988, 56.89062500000001 19.5 C56.89062500000001 19.5, 56.89062500000001 19.5, 56.890625 19.5 C26.544554782756048 19.5, -3.8015154344879036 19.5, -56.89062499999999 19.5 C-57.17790039913599 19.490787637097352, -57.465175798272 19.481575274194704, -58.13999428962389 19.45993515863156 C-58.40901806317114 19.43398275874588, -58.67804183671838 19.408030358860202, -59.38422965284787 19.3399052695533 C-59.755574735396834 19.279869076430906, -60.1269198179458 19.219832883308516, -60.61821825967676 19.140403561325773 C-60.971325483146266 19.059809141808834, -61.324432706615774 18.979214722291893, -61.836889386235384 18.862249829261074 C-62.14167728332336 18.771790381269682, -62.44646518041134 18.681330933278293, -63.03523525146059 18.506587066708043 C-63.27140371016051 18.41967489078917, -63.507572168860435 18.3327627148703, -64.2083315951478 18.074876768247425 C-64.6458358576018 17.881206609361872, -65.0833401200558 17.68753645047632, -65.35135791279238 17.568892924097174 C-65.76233931797721 17.354484188258404, -66.17332072316204 17.140075452419637, -66.45961726407678 16.990714730406097 C-66.69003791872144 16.851032375458434, -66.9204585733661 16.71135002051077, -67.52855557360569 16.3427180453909 C-67.79112569582924 16.159560494605145, -68.05369581805279 15.97640294381939, -68.55378034457871 15.627565626425156 C-68.86882968206451 15.376322163595198, -69.18387901955032 15.12507870076524, -69.53107870850187 14.848196188198125 C-69.72930112979229 14.668175829860026, -69.92752355108273 14.488155471521925, -70.45643473676797 14.007812326905697 C-70.67858309698263 13.778425906264493, -70.9007314571973 13.54903948562329, -71.32604594296865 13.109867360095677 C-71.56602205192044 12.827977767493472, -71.80599816087224 12.546088174891267, -72.13633890812658 12.158051136245307 C-72.32109093513364 11.910500251311758, -72.5058429621407 11.662949366378209, -72.88398396464063 11.156274872382316 C-73.12474538355342 10.78640067943896, -73.3655068024662 10.416526486495606, -73.56590887860425 10.108655082055249 C-73.7994739114505 9.693936715212526, -74.03303894429675 9.279218348369803, -74.1793114742735 9.019496659696289 C-74.33370973963476 8.698885358080005, -74.488108004996 8.378274056463722, -74.72167114880834 7.893275190886686 C-74.84798006592679 7.5812897235873145, -74.97428898304526 7.269304256287944, -75.19075922997033 6.73461856121551 C-75.32434275375127 6.332286271231441, -75.45792627753222 5.9299539812473725, -75.58464813421489 5.5482879393051325 C-75.65686491566659 5.272894052678709, -75.7290816971183 4.997500166052287, -75.90171928754556 4.339158212148136 C-75.96886822661648 3.994362601952248, -76.0360171656874 3.6495669917563593, -76.14066977658177 3.112197953150904 C-76.1840448599425 2.775789371984148, -76.22741994330322 2.439380790817392, -76.30051770250937 1.872449005199809 C-76.32296793334561 1.522768538425267, -76.34541816418184 1.1730880716507248, -76.38060621591342 0.6250057626472781 C-76.38060621591342 0.3523041863969308, -76.38060621591342 0.07960261014658343, -76.38060621591342 -0.6250057626472687 C-76.35537126453384 -1.0180604996702325, -76.33013631315427 -1.4111152366931963, -76.30051770250937 -1.8724490051997822 C-76.2488051573461 -2.273521293688995, -76.19709261218283 -2.6745935821782076, -76.14066977658177 -3.112197953150895 C-76.08268581854782 -3.409933322741394, -76.02470186051386 -3.707668692331893, -75.90171928754556 -4.339158212148126 C-75.78421670146545 -4.787246498814545, -75.66671411538533 -5.235334785480963, -75.58464813421489 -5.548287939305123 C-75.5013476129987 -5.799175837072621, -75.4180470917825 -6.05006373484012, -75.19075922997033 -6.734618561215485 C-75.01386563045318 -7.17154917202793, -74.83697203093602 -7.6084797828403765, -74.72167114880834 -7.893275190886676 C-74.55739865405276 -8.23439054111497, -74.39312615929717 -8.57550589134326, -74.1793114742735 -9.019496659696282 C-74.04276783960046 -9.261943709600585, -73.90622420492741 -9.504390759504888, -73.56590887860425 -10.108655082055243 C-73.41231924194837 -10.344610008550898, -73.25872960529249 -10.580564935046553, -72.88398396464063 -11.156274872382308 C-72.72437011151587 -11.37014289444834, -72.5647562583911 -11.584010916514373, -72.13633890812659 -12.158051136245302 C-71.9076426660026 -12.426690755428957, -71.67894642387861 -12.695330374612611, -71.32604594296866 -13.10986736009567 C-71.09864282597097 -13.344679748538901, -70.87123970897329 -13.57949213698213, -70.45643473676799 -14.007812326905677 C-70.11080453596601 -14.321704530400048, -69.76517433516403 -14.635596733894419, -69.5310787085019 -14.848196188198107 C-69.28837852649556 -15.04174312482507, -69.04567834448923 -15.23529006145203, -68.55378034457871 -15.627565626425149 C-68.28717880127762 -15.813535322037188, -68.02057725797654 -15.999505017649227, -67.52855557360571 -16.342718045390885 C-67.16219409018724 -16.564808529618215, -66.79583260676877 -16.786899013845545, -66.45961726407678 -16.99071473040609 C-66.19929945557668 -17.126522364359086, -65.93898164707656 -17.26232999831208, -65.3513579127924 -17.56889292409717 C-64.98278781716616 -17.732047972187477, -64.61421772153993 -17.895203020277783, -64.20833159514781 -18.07487676824742 C-63.81916049779367 -18.218095329531934, -63.429989400439524 -18.361313890816447, -63.03523525146062 -18.506587066708033 C-62.61192265564157 -18.63222402313397, -62.18861005982252 -18.757860979559904, -61.83688938623541 -18.862249829261067 C-61.59130868621836 -18.918302021476126, -61.34572798620131 -18.974354213691182, -60.618218259676766 -19.140403561325773 C-60.17624211234617 -19.21185883724997, -59.73426596501558 -19.283314113174168, -59.38422965284788 -19.3399052695533 C-59.098843553460334 -19.367436123334215, -58.81345745407279 -19.394966977115132, -58.1399942896239 -19.45993515863156 C-57.689585546488814 -19.474378890356466, -57.23917680335372 -19.488822622081376, -56.89062500000001 -19.5 C-56.89062500000001 -19.5, -56.890625 -19.5, -56.890625 -19.5" stroke="none" stroke-width="0" fill="#0f9f76" style="fill:#0f9f76 !important;stroke:#0b7a5a !important"/><path d="M-56.890625 -19.5 C-12.11057444968624 -19.5, 32.66947610062752 -19.5, 56.890625 -19.5 M-56.890625 -19.5 C-19.51063770354341 -19.5, 17.86934959291318 -19.5, 56.890625 -19.5 M56.890625 -19.5 C56.890625 -19.5, 56.890625 -19.5, 56.890625 -19.5 M56.890625 -19.5 C56.890625 -19.5, 56.890625 -19.5, 56.890625 -19.5 M56.890625 -19.5 C57.25746561574155 -19.48823613546511, 57.624306231483104 -19.47647227093022, 58.1399942896239 -19.45993515863156 M56.890625 -19.5 C57.195726093555265 -19.490216001772936, 57.50082718711053 -19.48043200354587, 58.1399942896239 -19.45993515863156 M58.1399942896239 -19.45993515863156 C58.630579521047 -19.412608991371236, 59.1211647524701 -19.36528282411091, 59.384229652847864 -19.3399052695533 M58.1399942896239 -19.45993515863156 C58.42815585355061 -19.432136559124533, 58.71631741747731 -19.40433795961751, 59.384229652847864 -19.3399052695533 M59.384229652847864 -19.3399052695533 C59.671561406146665 -19.293451699970976, 59.958893159445466 -19.24699813038865, 60.61821825967676 -19.140403561325776 M59.384229652847864 -19.3399052695533 C59.63931452476085 -19.298665125675136, 59.89439939667383 -19.25742498179697, 60.61821825967676 -19.140403561325776 M60.61821825967676 -19.140403561325776 C60.94912718967609 -19.064875757436003, 61.280036119675415 -18.98934795354623, 61.83688938623539 -18.862249829261074 M60.61821825967676 -19.140403561325776 C61.01797382218449 -19.049161962832223, 61.417729384692215 -18.95792036433867, 61.83688938623539 -18.862249829261074 M61.83688938623539 -18.862249829261074 C62.13846983943242 -18.7727423337803, 62.440050292629444 -18.683234838299526, 63.035235251460605 -18.50658706670804 M61.83688938623539 -18.862249829261074 C62.20281378741327 -18.753645387767857, 62.568738188591155 -18.64504094627464, 63.035235251460605 -18.50658706670804 M63.035235251460605 -18.50658706670804 C63.44268819822617 -18.356640615844558, 63.85014114499174 -18.206694164981077, 64.2083315951478 -18.074876768247425 M63.035235251460605 -18.50658706670804 C63.40848688654 -18.36922701469853, 63.78173852161939 -18.231866962689022, 64.2083315951478 -18.074876768247425 M64.2083315951478 -18.074876768247425 C64.58488802738009 -17.908186405847875, 64.96144445961238 -17.74149604344833, 65.35135791279238 -17.568892924097174 M64.2083315951478 -18.074876768247425 C64.47858603321252 -17.955243145329238, 64.74884047127725 -17.835609522411055, 65.35135791279238 -17.568892924097174 M65.35135791279238 -17.568892924097174 C65.60241568082587 -17.437916247324274, 65.85347344885938 -17.306939570551375, 66.45961726407678 -16.990714730406097 M65.35135791279238 -17.568892924097174 C65.7755194001193 -17.347608147847122, 66.19968088744622 -17.126323371597067, 66.45961726407678 -16.990714730406097 M66.45961726407678 -16.990714730406097 C66.70260098966858 -16.84341656802148, 66.94558471526038 -16.69611840563686, 67.5285555736057 -16.342718045390892 M66.45961726407678 -16.990714730406097 C66.78394137173682 -16.794107550402575, 67.10826547939683 -16.597500370399054, 67.5285555736057 -16.342718045390892 M67.5285555736057 -16.342718045390892 C67.7499806915985 -16.188261468417984, 67.9714058095913 -16.033804891445076, 68.55378034457871 -15.627565626425154 M67.5285555736057 -16.342718045390892 C67.83574368485961 -16.128436916939183, 68.1429317961135 -15.914155788487472, 68.55378034457871 -15.627565626425154 M68.55378034457871 -15.627565626425154 C68.92551563643542 -15.331116623460996, 69.29725092829212 -15.034667620496839, 69.53107870850187 -14.848196188198123 M68.55378034457871 -15.627565626425154 C68.8164208304331 -15.418116828113135, 69.07906131628748 -15.208668029801117, 69.53107870850187 -14.848196188198123 M69.53107870850187 -14.848196188198123 C69.86204032029282 -14.547625609133972, 70.19300193208377 -14.24705503006982, 70.45643473676799 -14.007812326905688 M69.53107870850187 -14.848196188198123 C69.86537314931346 -14.544598821999257, 70.19966759012505 -14.24100145580039, 70.45643473676799 -14.007812326905688 M70.45643473676799 -14.007812326905688 C70.70624598102297 -13.749861707327831, 70.95605722527796 -13.491911087749973, 71.32604594296865 -13.10986736009568 M70.45643473676799 -14.007812326905688 C70.74986215168327 -13.704824430166859, 71.04328956659856 -13.401836533428028, 71.32604594296865 -13.10986736009568 M71.32604594296865 -13.10986736009568 C71.56414946105835 -12.830177419273523, 71.80225297914805 -12.550487478451364, 72.13633890812658 -12.158051136245305 M71.32604594296865 -13.10986736009568 C71.64227680525372 -12.738404595209825, 71.95850766753878 -12.36694183032397, 72.13633890812658 -12.158051136245305 M72.13633890812658 -12.158051136245305 C72.43295151331863 -11.76061726725218, 72.7295641185107 -11.363183398259054, 72.88398396464063 -11.156274872382312 M72.13633890812658 -12.158051136245305 C72.3335043474201 -11.89386740973301, 72.53066978671363 -11.629683683220717, 72.88398396464063 -11.156274872382312 M72.88398396464063 -11.156274872382312 C73.08518462346181 -10.84717663049119, 73.28638528228298 -10.538078388600065, 73.56590887860425 -10.108655082055241 M72.88398396464063 -11.156274872382312 C73.03599637082621 -10.922742995434726, 73.18800877701177 -10.68921111848714, 73.56590887860425 -10.108655082055241 M73.56590887860425 -10.108655082055241 C73.78009375311414 -9.72834814879255, 73.99427862762404 -9.348041215529861, 74.1793114742735 -9.019496659696287 M73.56590887860425 -10.108655082055241 C73.79399184664092 -9.703670676401192, 74.02207481467758 -9.298686270747144, 74.1793114742735 -9.019496659696287 M74.1793114742735 -9.019496659696287 C74.38385531131227 -8.59475700554828, 74.58839914835104 -8.170017351400274, 74.72167114880834 -7.893275190886684 M74.1793114742735 -9.019496659696287 C74.35666875201369 -8.65121047763096, 74.53402602975389 -8.282924295565632, 74.72167114880834 -7.893275190886684 M74.72167114880834 -7.893275190886684 C74.82036078539949 -7.649509880472225, 74.91905042199063 -7.405744570057766, 75.19075922997033 -6.734618561215508 M74.72167114880834 -7.893275190886684 C74.87684089541547 -7.510002916764117, 75.0320106420226 -7.126730642641549, 75.19075922997033 -6.734618561215508 M75.19075922997033 -6.734618561215508 C75.27406013826773 -6.483729497621082, 75.35736104656513 -6.232840434026656, 75.58464813421489 -5.548287939305138 M75.19075922997033 -6.734618561215508 C75.31428197416756 -6.362587736370064, 75.43780471836479 -5.990556911524619, 75.58464813421489 -5.548287939305138 M75.58464813421489 -5.548287939305138 C75.66027876956265 -5.259875548199386, 75.73590940491043 -4.971463157093635, 75.90171928754556 -4.339158212148133 M75.58464813421489 -5.548287939305138 C75.65464858177498 -5.281345894372638, 75.72464902933505 -5.014403849440138, 75.90171928754556 -4.339158212148133 M75.90171928754556 -4.339158212148133 C75.97491375057233 -3.9633201141609193, 76.0481082135991 -3.5874820161737055, 76.14066977658177 -3.1121979531509023 M75.90171928754556 -4.339158212148133 C75.94954624853386 -4.0935768757049695, 75.99737320952217 -3.8479955392618055, 76.14066977658177 -3.1121979531509023 M76.14066977658177 -3.1121979531509023 C76.20163756721084 -2.6393438084838827, 76.2626053578399 -2.166489663816863, 76.30051770250937 -1.872449005199798 M76.14066977658177 -3.1121979531509023 C76.18521358393394 -2.766724979497188, 76.2297573912861 -2.4212520058434737, 76.30051770250937 -1.872449005199798 M76.30051770250937 -1.872449005199798 C76.3296021056731 -1.4194359494168416, 76.35868650883685 -0.9664228936338852, 76.38060621591342 -0.6250057626472757 M76.30051770250937 -1.872449005199798 C76.31695447214855 -1.6164330505478788, 76.33339124178774 -1.3604170958959596, 76.38060621591342 -0.6250057626472757 M76.38060621591342 -0.6250057626472757 C76.38060621591342 -0.3342613146673673, 76.38060621591342 -0.04351686668745891, 76.38060621591342 0.625005762647271 M76.38060621591342 -0.6250057626472757 C76.38060621591342 -0.1366254545010807, 76.38060621591342 0.3517548536451143, 76.38060621591342 0.625005762647271 M76.38060621591342 0.625005762647271 C76.34872893354527 1.1215201664103172, 76.31685165117713 1.6180345701733632, 76.30051770250937 1.8724490051997846 M76.38060621591342 0.625005762647271 C76.35208891067597 1.0691858104748655, 76.32357160543853 1.5133658583024598, 76.30051770250937 1.8724490051997846 M76.30051770250937 1.8724490051997846 C76.26303921574376 2.163124747589471, 76.22556072897817 2.453800489979157, 76.14066977658177 3.1121979531508885 M76.30051770250937 1.8724490051997846 C76.24384550704491 2.3119873620312554, 76.18717331158047 2.7515257188627262, 76.14066977658177 3.1121979531508885 M76.14066977658177 3.1121979531508885 C76.0714868851312 3.4674374789403712, 76.0023039936806 3.8226770047298535, 75.90171928754556 4.339158212148129 M76.14066977658177 3.1121979531508885 C76.06504873032068 3.5004960431878103, 75.98942768405959 3.888794133224732, 75.90171928754556 4.339158212148129 M75.90171928754556 4.339158212148129 C75.80936456895634 4.69134678091706, 75.71700985036712 5.043535349685992, 75.58464813421489 5.548287939305125 M75.90171928754556 4.339158212148129 C75.80904492863334 4.692565708001649, 75.71637056972112 5.04597320385517, 75.58464813421489 5.548287939305125 M75.58464813421489 5.548287939305125 C75.43950957809894 5.985422145637842, 75.29437102198298 6.4225563519705595, 75.19075922997033 6.734618561215495 M75.58464813421489 5.548287939305125 C75.4723826950262 5.886413555072838, 75.36011725583751 6.224539170840551, 75.19075922997033 6.734618561215495 M75.19075922997033 6.734618561215495 C75.07415778629655 7.022626381425261, 74.95755634262278 7.310634201635026, 74.72167114880834 7.893275190886679 M75.19075922997033 6.734618561215495 C75.04918208042297 7.084316857805451, 74.9076049308756 7.434015154395407, 74.72167114880834 7.893275190886679 M74.72167114880834 7.893275190886679 C74.50562787157534 8.341893678646615, 74.28958459434234 8.79051216640655, 74.1793114742735 9.019496659696284 M74.72167114880834 7.893275190886679 C74.56229621476085 8.22422065151361, 74.40292128071334 8.555166112140542, 74.1793114742735 9.019496659696284 M74.1793114742735 9.019496659696284 C73.99676466343594 9.343627007207402, 73.81421785259838 9.667757354718523, 73.56590887860425 10.108655082055236 M74.1793114742735 9.019496659696284 C73.98700992872206 9.36094752646589, 73.79470838317063 9.702398393235498, 73.56590887860425 10.108655082055236 M73.56590887860425 10.108655082055236 C73.33223442641955 10.467641790987226, 73.09855997423486 10.826628499919217, 72.88398396464065 11.156274872382301 M73.56590887860425 10.108655082055236 C73.32769908667618 10.4746092907423, 73.08948929474809 10.840563499429367, 72.88398396464065 11.156274872382301 M72.88398396464065 11.156274872382301 C72.7051521705269 11.395893184583121, 72.52632037641315 11.635511496783943, 72.13633890812659 12.158051136245302 M72.88398396464065 11.156274872382301 C72.68567132717673 11.421995739931003, 72.48735868971282 11.687716607479706, 72.13633890812659 12.158051136245302 M72.13633890812659 12.158051136245302 C71.84437492134138 12.501008648344678, 71.55241093455618 12.843966160444056, 71.32604594296866 13.10986736009567 M72.13633890812659 12.158051136245302 C71.8190307588361 12.53077934374708, 71.50172260954562 12.90350755124886, 71.32604594296866 13.10986736009567 M71.32604594296866 13.10986736009567 C71.08101060531834 13.362886463994995, 70.835975267668 13.615905567894318, 70.45643473676799 14.007812326905684 M71.32604594296866 13.10986736009567 C70.99774023841593 13.448869954445986, 70.66943453386321 13.787872548796303, 70.45643473676799 14.007812326905684 M70.45643473676799 14.007812326905684 C70.10704435541004 14.325119426892062, 69.75765397405209 14.642426526878438, 69.5310787085019 14.848196188198111 M70.45643473676799 14.007812326905684 C70.11068287080319 14.321815023481848, 69.76493100483839 14.635817720058014, 69.5310787085019 14.848196188198111 M69.5310787085019 14.848196188198111 C69.31814009510742 15.01800906584572, 69.10520148171295 15.187821943493326, 68.55378034457871 15.627565626425152 M69.5310787085019 14.848196188198111 C69.14094305339803 15.159318991197644, 68.75080739829416 15.470441794197177, 68.55378034457871 15.627565626425152 M68.55378034457871 15.627565626425152 C68.2443547224609 15.843407545595245, 67.93492910034308 16.059249464765337, 67.5285555736057 16.34271804539089 M68.55378034457871 15.627565626425152 C68.24059538195655 15.84602989879185, 67.9274104193344 16.064494171158547, 67.5285555736057 16.34271804539089 M67.5285555736057 16.34271804539089 C67.17868532158238 16.554811448233252, 66.82881506955904 16.766904851075612, 66.45961726407678 16.990714730406093 M67.5285555736057 16.34271804539089 C67.17895706121298 16.554646718072252, 66.82935854882028 16.766575390753616, 66.45961726407678 16.990714730406093 M66.45961726407678 16.990714730406093 C66.16506971068654 17.144380000343073, 65.87052215729629 17.29804527028005, 65.35135791279238 17.56889292409717 M66.45961726407678 16.990714730406093 C66.0853933249753 17.185947119733463, 65.71116938587382 17.381179509060836, 65.35135791279238 17.56889292409717 M65.35135791279238 17.56889292409717 C64.96537499723365 17.739756111038638, 64.57939208167494 17.910619297980105, 64.2083315951478 18.07487676824742 M65.35135791279238 17.56889292409717 C64.93596715238927 17.75277409159853, 64.52057639198615 17.936655259099886, 64.2083315951478 18.07487676824742 M64.2083315951478 18.07487676824742 C63.78704273091392 18.229914964637057, 63.365753866680045 18.384953161026697, 63.03523525146062 18.506587066708033 M64.2083315951478 18.07487676824742 C63.782468878470546 18.23159818461645, 63.3566061617933 18.388319600985476, 63.03523525146062 18.506587066708033 M63.03523525146062 18.506587066708033 C62.69839692302325 18.606558914487778, 62.36155859458589 18.706530762267523, 61.83688938623541 18.86224982926107 M63.03523525146062 18.506587066708033 C62.73983484697783 18.59426035617016, 62.44443444249503 18.68193364563229, 61.83688938623541 18.86224982926107 M61.83688938623541 18.86224982926107 C61.46959104308757 18.94608327923888, 61.10229269993972 19.02991672921669, 60.618218259676766 19.140403561325773 M61.83688938623541 18.86224982926107 C61.36723905385856 18.96944445287125, 60.8975887214817 19.07663907648143, 60.618218259676766 19.140403561325773 M60.618218259676766 19.140403561325773 C60.254511912232644 19.19920478299569, 59.89080556478853 19.258006004665603, 59.38422965284788 19.3399052695533 M60.618218259676766 19.140403561325773 C60.35679126444834 19.182669050517678, 60.09536426921992 19.224934539709583, 59.38422965284788 19.3399052695533 M59.38422965284788 19.3399052695533 C59.13129375303925 19.36430569160791, 58.878357853230625 19.388706113662526, 58.1399942896239 19.45993515863156 M59.38422965284788 19.3399052695533 C58.92145346617069 19.384548731712254, 58.45867727949351 19.42919219387121, 58.1399942896239 19.45993515863156 M58.1399942896239 19.45993515863156 C57.777756848211766 19.47155140832524, 57.415519406799625 19.48316765801892, 56.89062500000001 19.5 M58.1399942896239 19.45993515863156 C57.873983459341105 19.46846560820006, 57.6079726290583 19.476996057768556, 56.89062500000001 19.5 M56.89062500000001 19.5 C56.89062500000001 19.5, 56.890625 19.5, 56.890625 19.5 M56.89062500000001 19.5 C56.89062500000001 19.5, 56.890625 19.5, 56.890625 19.5 M56.890625 19.5 C19.963127025273224 19.5, -16.964370949453553 19.5, -56.89062499999999 19.5 M56.890625 19.5 C22.58051783636963 19.5, -11.72958932726074 19.5, -56.89062499999999 19.5 M-56.89062499999999 19.5 C-57.26322893740483 19.488051316956994, -57.63583287480967 19.47610263391399, -58.13999428962389 19.45993515863156 M-56.89062499999999 19.5 C-57.26489626584237 19.487997848979262, -57.63916753168474 19.47599569795852, -58.13999428962389 19.45993515863156 M-58.13999428962389 19.45993515863156 C-58.462214980499795 19.428850916109837, -58.784435671375704 19.39776667358812, -59.38422965284787 19.3399052695533 M-58.13999428962389 19.45993515863156 C-58.58834459342078 19.416683344044404, -59.03669489721767 19.37343152945725, -59.38422965284787 19.3399052695533 M-59.38422965284787 19.3399052695533 C-59.77152677560056 19.27729007428069, -60.158823898353255 19.214674879008076, -60.61821825967676 19.140403561325773 M-59.38422965284787 19.3399052695533 C-59.738123618693905 19.282690437644007, -60.09201758453994 19.22547560573471, -60.61821825967676 19.140403561325773 M-60.61821825967676 19.140403561325773 C-61.10127067476549 19.03014999979337, -61.58432308985421 18.919896438260967, -61.836889386235384 18.862249829261074 M-60.61821825967676 19.140403561325773 C-60.91157825070753 19.073446057725846, -61.20493824173829 19.006488554125923, -61.836889386235384 18.862249829261074 M-61.836889386235384 18.862249829261074 C-62.24431653259807 18.741327590849362, -62.65174367896075 18.620405352437654, -63.03523525146059 18.506587066708043 M-61.836889386235384 18.862249829261074 C-62.24387038342504 18.741460005582034, -62.6508513806147 18.62067018190299, -63.03523525146059 18.506587066708043 M-63.03523525146059 18.506587066708043 C-63.50069200909328 18.335294677264116, -63.96614876672596 18.164002287820185, -64.2083315951478 18.074876768247425 M-63.03523525146059 18.506587066708043 C-63.296860827757435 18.41030643619049, -63.55848640405427 18.314025805672937, -64.2083315951478 18.074876768247425 M-64.2083315951478 18.074876768247425 C-64.51475677059817 17.93923143285541, -64.82118194604854 17.803586097463402, -65.35135791279238 17.568892924097174 M-64.2083315951478 18.074876768247425 C-64.50759972660119 17.94239964392671, -64.80686785805459 17.809922519605994, -65.35135791279238 17.568892924097174 M-65.35135791279238 17.568892924097174 C-65.6395885013781 17.418523210652506, -65.92781908996383 17.268153497207834, -66.45961726407678 16.990714730406097 M-65.35135791279238 17.568892924097174 C-65.65607700288875 17.409921169975792, -65.96079609298512 17.250949415854407, -66.45961726407678 16.990714730406097 M-66.45961726407678 16.990714730406097 C-66.67578675377551 16.8596715153978, -66.89195624347424 16.728628300389506, -67.52855557360569 16.3427180453909 M-66.45961726407678 16.990714730406097 C-66.71204513074547 16.837691474200742, -66.96447299741413 16.684668217995387, -67.52855557360569 16.3427180453909 M-67.52855557360569 16.3427180453909 C-67.85835842419715 16.112661853753593, -68.18816127478863 15.882605662116283, -68.55378034457871 15.627565626425156 M-67.52855557360569 16.3427180453909 C-67.84359274002689 16.122961755834602, -68.1586299064481 15.903205466278305, -68.55378034457871 15.627565626425156 M-68.55378034457871 15.627565626425156 C-68.82395983748044 15.412104670614282, -69.09413933038218 15.196643714803406, -69.53107870850187 14.848196188198125 M-68.55378034457871 15.627565626425156 C-68.7743184369423 15.451692366530308, -68.99485652930588 15.275819106635462, -69.53107870850187 14.848196188198125 M-69.53107870850187 14.848196188198125 C-69.81476149742835 14.590562985130385, -70.09844428635482 14.332929782062644, -70.45643473676797 14.007812326905697 M-69.53107870850187 14.848196188198125 C-69.75178595089425 14.647755710250996, -69.97249319328664 14.447315232303866, -70.45643473676797 14.007812326905697 M-70.45643473676797 14.007812326905697 C-70.75476674099144 13.699760039031908, -71.0530987452149 13.391707751158117, -71.32604594296865 13.109867360095677 M-70.45643473676797 14.007812326905697 C-70.64102234065422 13.817210470969034, -70.82560994454045 13.62660861503237, -71.32604594296865 13.109867360095677 M-71.32604594296865 13.109867360095677 C-71.56407693980111 12.830262606868853, -71.80210793663358 12.550657853642031, -72.13633890812658 12.158051136245307 M-71.32604594296865 13.109867360095677 C-71.51497394225719 12.887941781823653, -71.70390194154574 12.666016203551628, -72.13633890812658 12.158051136245307 M-72.13633890812658 12.158051136245307 C-72.39286507973786 11.81432943630119, -72.64939125134914 11.47060773635707, -72.88398396464063 11.156274872382316 M-72.13633890812658 12.158051136245307 C-72.37662563913229 11.83608880726919, -72.61691237013798 11.514126478293074, -72.88398396464063 11.156274872382316 M-72.88398396464063 11.156274872382316 C-73.15105308351265 10.745984987694994, -73.41812220238468 10.335695103007671, -73.56590887860425 10.108655082055249 M-72.88398396464063 11.156274872382316 C-73.10751324911918 10.812873865405964, -73.33104253359771 10.469472858429612, -73.56590887860425 10.108655082055249 M-73.56590887860425 10.108655082055249 C-73.78577191285221 9.718266001201584, -74.00563494710019 9.327876920347922, -74.1793114742735 9.019496659696289 M-73.56590887860425 10.108655082055249 C-73.70079832750412 9.869145206495682, -73.835687776404 9.629635330936114, -74.1793114742735 9.019496659696289 M-74.1793114742735 9.019496659696289 C-74.29677001985594 8.775591476584095, -74.41422856543838 8.531686293471902, -74.72167114880834 7.893275190886686 M-74.1793114742735 9.019496659696289 C-74.36983097620582 8.623878837469533, -74.56035047813813 8.228261015242776, -74.72167114880834 7.893275190886686 M-74.72167114880834 7.893275190886686 C-74.902879369977 7.445687381177471, -75.08408759114566 6.998099571468256, -75.19075922997033 6.73461856121551 M-74.72167114880834 7.893275190886686 C-74.83479570202992 7.613855357314949, -74.94792025525149 7.334435523743212, -75.19075922997033 6.73461856121551 M-75.19075922997033 6.73461856121551 C-75.30340481273994 6.395348013549697, -75.41605039550956 6.056077465883884, -75.58464813421489 5.5482879393051325 M-75.19075922997033 6.73461856121551 C-75.3438442388712 6.273550905189901, -75.49692924777209 5.812483249164293, -75.58464813421489 5.5482879393051325 M-75.58464813421489 5.5482879393051325 C-75.71035604927502 5.068909177025817, -75.83606396433515 4.589530414746502, -75.90171928754556 4.339158212148136 M-75.58464813421489 5.5482879393051325 C-75.68605662154931 5.161573426382547, -75.78746510888374 4.774858913459961, -75.90171928754556 4.339158212148136 M-75.90171928754556 4.339158212148136 C-75.96546552666962 4.011834747018506, -76.02921176579368 3.684511281888876, -76.14066977658177 3.112197953150904 M-75.90171928754556 4.339158212148136 C-75.9958428104376 3.8558538151111743, -76.08996633332961 3.372549418074213, -76.14066977658177 3.112197953150904 M-76.14066977658177 3.112197953150904 C-76.17713051849847 2.8294156388328666, -76.21359126041517 2.546633324514829, -76.30051770250937 1.872449005199809 M-76.14066977658177 3.112197953150904 C-76.19212042549677 2.7131568802460535, -76.24357107441176 2.314115807341203, -76.30051770250937 1.872449005199809 M-76.30051770250937 1.872449005199809 C-76.31700164369973 1.615698315562076, -76.3334855848901 1.3589476259243434, -76.38060621591342 0.6250057626472781 M-76.30051770250937 1.872449005199809 C-76.31849299022434 1.5924693896478719, -76.33646827793933 1.3124897740959347, -76.38060621591342 0.6250057626472781 M-76.38060621591342 0.6250057626472781 C-76.38060621591342 0.1552582913996805, -76.38060621591342 -0.31448917984791713, -76.38060621591342 -0.6250057626472687 M-76.38060621591342 0.6250057626472781 C-76.38060621591342 0.3428592385206223, -76.38060621591342 0.060712714393966416, -76.38060621591342 -0.6250057626472687 M-76.38060621591342 -0.6250057626472687 C-76.34941740335763 -1.110796693360042, -76.31822859080184 -1.5965876240728152, -76.30051770250937 -1.8724490051997822 M-76.38060621591342 -0.6250057626472687 C-76.36377079030049 -0.8872311058794315, -76.34693536468758 -1.1494564491115944, -76.30051770250937 -1.8724490051997822 M-76.30051770250937 -1.8724490051997822 C-76.25461824583627 -2.2284361272834303, -76.20871878916317 -2.5844232493670782, -76.14066977658177 -3.112197953150895 M-76.30051770250937 -1.8724490051997822 C-76.25108439719544 -2.2558439595042725, -76.20165109188153 -2.639238913808763, -76.14066977658177 -3.112197953150895 M-76.14066977658177 -3.112197953150895 C-76.07263184647961 -3.461558344403917, -76.00459391637743 -3.810918735656939, -75.90171928754556 -4.339158212148126 M-76.14066977658177 -3.112197953150895 C-76.05400632879225 -3.557196441223935, -75.96734288100272 -4.002194929296975, -75.90171928754556 -4.339158212148126 M-75.90171928754556 -4.339158212148126 C-75.78253358580999 -4.793664948275745, -75.66334788407443 -5.248171684403364, -75.58464813421489 -5.548287939305123 M-75.90171928754556 -4.339158212148126 C-75.80566933319353 -4.70543831640597, -75.7096193788415 -5.071718420663814, -75.58464813421489 -5.548287939305123 M-75.58464813421489 -5.548287939305123 C-75.45847870531705 -5.928290156776886, -75.3323092764192 -6.30829237424865, -75.19075922997033 -6.734618561215485 M-75.58464813421489 -5.548287939305123 C-75.46472559940166 -5.9094755071014085, -75.34480306458845 -6.270663074897694, -75.19075922997033 -6.734618561215485 M-75.19075922997033 -6.734618561215485 C-75.04857945946026 -7.085805343234234, -74.90639968895017 -7.436992125252983, -74.72167114880834 -7.893275190886676 M-75.19075922997033 -6.734618561215485 C-75.04788806574099 -7.087513099088004, -74.90501690151164 -7.440407636960524, -74.72167114880834 -7.893275190886676 M-74.72167114880834 -7.893275190886676 C-74.56342508458275 -8.221876529174489, -74.40517902035715 -8.550477867462304, -74.1793114742735 -9.019496659696282 M-74.72167114880834 -7.893275190886676 C-74.51876832841947 -8.314607238849034, -74.31586550803061 -8.735939286811393, -74.1793114742735 -9.019496659696282 M-74.1793114742735 -9.019496659696282 C-74.05556125729234 -9.239227701014624, -73.93181104031119 -9.458958742332966, -73.56590887860425 -10.108655082055243 M-74.1793114742735 -9.019496659696282 C-74.027014199518 -9.289915892796015, -73.87471692476251 -9.560335125895751, -73.56590887860425 -10.108655082055243 M-73.56590887860425 -10.108655082055243 C-73.32128697203272 -10.484460020728516, -73.07666506546119 -10.86026495940179, -72.88398396464063 -11.156274872382308 M-73.56590887860425 -10.108655082055243 C-73.41462527210894 -10.341067326968464, -73.26334166561362 -10.573479571881682, -72.88398396464063 -11.156274872382308 M-72.88398396464063 -11.156274872382308 C-72.63983413479271 -11.483413401871474, -72.39568430494477 -11.81055193136064, -72.13633890812659 -12.158051136245302 M-72.88398396464063 -11.156274872382308 C-72.64408552554464 -11.47771692557354, -72.40418708644864 -11.799158978764773, -72.13633890812659 -12.158051136245302 M-72.13633890812659 -12.158051136245302 C-71.94932076212181 -12.377733292176474, -71.76230261611705 -12.597415448107645, -71.32604594296866 -13.10986736009567 M-72.13633890812659 -12.158051136245302 C-71.85964553991968 -12.483070910839809, -71.58295217171276 -12.808090685434316, -71.32604594296866 -13.10986736009567 M-71.32604594296866 -13.10986736009567 C-71.020647378634 -13.425216451459644, -70.71524881429934 -13.740565542823617, -70.45643473676799 -14.007812326905677 M-71.32604594296866 -13.10986736009567 C-71.03445139842952 -13.410962667689656, -70.7428568538904 -13.712057975283642, -70.45643473676799 -14.007812326905677 M-70.45643473676799 -14.007812326905677 C-70.21973555011562 -14.222776265506075, -69.98303636346324 -14.437740204106474, -69.5310787085019 -14.848196188198107 M-70.45643473676799 -14.007812326905677 C-70.1946127240787 -14.24559215139925, -69.9327907113894 -14.483371975892824, -69.5310787085019 -14.848196188198107 M-69.5310787085019 -14.848196188198107 C-69.25203059591517 -15.070729632203875, -68.97298248332845 -15.293263076209643, -68.55378034457871 -15.627565626425149 M-69.5310787085019 -14.848196188198107 C-69.26019553058055 -15.064218314086274, -68.98931235265921 -15.28024043997444, -68.55378034457871 -15.627565626425149 M-68.55378034457871 -15.627565626425149 C-68.34515633167811 -15.77309270663665, -68.13653231877751 -15.91861978684815, -67.52855557360571 -16.342718045390885 M-68.55378034457871 -15.627565626425149 C-68.27793762212765 -15.81998156856801, -68.00209489967659 -16.012397510710873, -67.52855557360571 -16.342718045390885 M-67.52855557360571 -16.342718045390885 C-67.19690234203742 -16.543768183378305, -66.86524911046914 -16.744818321365727, -66.45961726407678 -16.99071473040609 M-67.52855557360571 -16.342718045390885 C-67.29855982310934 -16.48214282094684, -67.06856407261297 -16.621567596502796, -66.45961726407678 -16.99071473040609 M-66.45961726407678 -16.99071473040609 C-66.18537476083387 -17.133786868687217, -65.91113225759094 -17.276859006968344, -65.3513579127924 -17.56889292409717 M-66.45961726407678 -16.99071473040609 C-66.18229279806341 -17.135394726690464, -65.90496833205006 -17.28007472297484, -65.3513579127924 -17.56889292409717 M-65.3513579127924 -17.56889292409717 C-65.07561720651947 -17.690955155206765, -64.79987650024654 -17.81301738631636, -64.20833159514781 -18.07487676824742 M-65.3513579127924 -17.56889292409717 C-65.11330347352565 -17.674272562726518, -64.8752490342589 -17.77965220135587, -64.20833159514781 -18.07487676824742 M-64.20833159514781 -18.07487676824742 C-63.79238449907702 -18.22794914457428, -63.376437403006236 -18.381021520901133, -63.03523525146062 -18.506587066708033 M-64.20833159514781 -18.07487676824742 C-63.82507228414453 -18.21591973750686, -63.44181297314125 -18.3569627067663, -63.03523525146062 -18.506587066708033 M-63.03523525146062 -18.506587066708033 C-62.778762087300535 -18.582706955575635, -62.52228892314045 -18.658826844443237, -61.83688938623541 -18.862249829261067 M-63.03523525146062 -18.506587066708033 C-62.58162295887657 -18.641216814087464, -62.12801066629253 -18.775846561466896, -61.83688938623541 -18.862249829261067 M-61.83688938623541 -18.862249829261067 C-61.39031409575923 -18.964177725136143, -60.94373880528305 -19.066105621011218, -60.618218259676766 -19.140403561325773 M-61.83688938623541 -18.862249829261067 C-61.49651473007733 -18.93993812337694, -61.156140073919246 -19.017626417492817, -60.618218259676766 -19.140403561325773 M-60.618218259676766 -19.140403561325773 C-60.366048120190364 -19.181172473869296, -60.11387798070396 -19.22194138641282, -59.38422965284788 -19.3399052695533 M-60.618218259676766 -19.140403561325773 C-60.363551533684834 -19.181576102614194, -60.108884807692895 -19.222748643902612, -59.38422965284788 -19.3399052695533 M-59.38422965284788 -19.3399052695533 C-59.054301079449935 -19.371733082231835, -58.72437250605199 -19.403560894910374, -58.1399942896239 -19.45993515863156 M-59.38422965284788 -19.3399052695533 C-58.88658554553348 -19.387912398081316, -58.38894143821908 -19.435919526609332, -58.1399942896239 -19.45993515863156 M-58.1399942896239 -19.45993515863156 C-57.85547906526116 -19.469059008101585, -57.57096384089842 -19.478182857571607, -56.89062500000001 -19.5 M-58.1399942896239 -19.45993515863156 C-57.64702718284321 -19.47574365424375, -57.15406007606253 -19.491552149855945, -56.89062500000001 -19.5 M-56.89062500000001 -19.5 C-56.89062500000001 -19.5, -56.89062500000001 -19.5, -56.890625 -19.5 M-56.89062500000001 -19.5 C-56.89062500000001 -19.5, -56.89062500000001 -19.5, -56.890625 -19.5" stroke="#0b7a5a" stroke-width="1.3" fill="none" stroke-dasharray="0 0" style="fill:#0f9f76 !important;stroke:#0b7a5a !important"/></g><g class="label" style="color:#ffffff !important;font-weight:600 !important" transform="translate(-64.015625, -12)"><rect/><foreignObject width="128.03125" height="24"><div style="color: rgb(255, 255, 255) !important; font-weight: 600 !important; display: table-cell; white-space: nowrap; line-height: 1.5; max-width: 200px; text-align: center;" xmlns="http://www.w3.org/1999/xhtml"><span style="color:#ffffff !important;font-weight:600 !important" class="nodeLabel"><p>visibleEntityIds()</p></span></div></foreignObject></g></g><g class="node default ctrl" id="my-svg-flowchart-F1-1" data-look="classic" transform="translate(307.90965270996094, 87)"><rect class="basic label-container" style="fill:#fdf0e3 !important;stroke:#b45309 !important" x="-92.703125" y="-27" width="185.40625" height="54"/><g class="label" style="color:#7a3908 !important" transform="translate(-62.703125, -12)"><rect/><foreignObject width="125.40625" height="24"><div style="color: rgb(122, 57, 8) !important; display: table-cell; white-space: nowrap; line-height: 1.5; max-width: 200px; text-align: center;" xmlns="http://www.w3.org/1999/xhtml"><span style="color:#7a3908 !important" class="nodeLabel"><p>Caller read scope</p></span></div></foreignObject></g></g><g class="node default ctrl" id="my-svg-flowchart-F2-3" data-look="classic" transform="translate(307.90965270996094, 191)"><rect class="basic label-container" style="fill:#fdf0e3 !important;stroke:#b45309 !important" x="-97.1484375" y="-27" width="194.296875" height="54"/><g class="label" style="color:#7a3908 !important" transform="translate(-67.1484375, -12)"><rect/><foreignObject width="134.296875" height="24"><div style="color: rgb(122, 57, 8) !important; display: table-cell; white-space: nowrap; line-height: 1.5; max-width: 200px; text-align: center;" xmlns="http://www.w3.org/1999/xhtml"><span style="color:#7a3908 !important" class="nodeLabel"><p>Deployment region</p></span></div></foreignObject></g></g><g class="node default data" id="my-svg-flowchart-IDS-6" data-look="classic" transform="translate(517.5190277099609, 139)"><rect class="basic label-container" style="fill:#e9f6f1 !important;stroke:#0b7a5a !important" x="-62.4609375" y="-27" width="124.921875" height="54"/><g class="label" style="color:#08402f !important" transform="translate(-32.4609375, -12)"><rect/><foreignObject width="64.921875" height="24"><div style="color: rgb(8, 64, 47) !important; display: table-cell; white-space: nowrap; line-height: 1.5; max-width: 200px; text-align: center;" xmlns="http://www.w3.org/1999/xhtml"><span style="color:#08402f !important" class="nodeLabel"><p>Entity ids</p></span></div></foreignObject></g></g><g class="node default data" id="my-svg-flowchart-LINES-8" data-look="classic" transform="translate(737.3627777099609, 139)"><rect class="basic label-container" style="fill:#e9f6f1 !important;stroke:#0b7a5a !important" x="-107.3828125" y="-27" width="214.765625" height="54"/><g class="label" style="color:#08402f !important" transform="translate(-77.3828125, -12)"><rect/><foreignObject width="154.765625" height="24"><div style="color: rgb(8, 64, 47) !important; display: table-cell; white-space: nowrap; line-height: 1.5; max-width: 200px; text-align: center;" xmlns="http://www.w3.org/1999/xhtml"><span style="color:#08402f !important" class="nodeLabel"><p>loadLines() one query</p></span></div></foreignObject></g></g><g class="node default data" id="my-svg-flowchart-TOT-10" data-look="classic" transform="translate(996.7846527099609, 139)"><rect class="basic label-container" style="fill:#e9f6f1 !important;stroke:#0b7a5a !important" x="-102.0390625" y="-39" width="204.078125" height="78"/><g class="label" style="color:#08402f !important" transform="translate(-72.0390625, -24)"><rect/><foreignObject width="144.078125" height="48"><div style="color: rgb(8, 64, 47) !important; display: table-cell; white-space: nowrap; line-height: 1.5; max-width: 200px; text-align: center;" xmlns="http://www.w3.org/1999/xhtml"><span style="color:#08402f !important" class="nodeLabel"><p>computeLineTotals()<br />FX at read time</p></span></div></foreignObject></g></g><g class="node default data" id="my-svg-flowchart-C-12" data-look="classic" transform="translate(1243.300277709961, 35)"><rect class="basic label-container" style="fill:#e9f6f1 !important;stroke:#0b7a5a !important" x="-94.4765625" y="-27" width="188.953125" height="54"/><g class="label" style="color:#08402f !important" transform="translate(-64.4765625, -12)"><rect/><foreignObject width="128.953125" height="24"><div style="color: rgb(8, 64, 47) !important; display: table-cell; white-space: nowrap; line-height: 1.5; max-width: 200px; text-align: center;" xmlns="http://www.w3.org/1999/xhtml"><span style="color:#08402f !important" class="nodeLabel"><p>rollUp by category</p></span></div></foreignObject></g></g><g class="node default data" id="my-svg-flowchart-E-14" data-look="classic" transform="translate(1243.300277709961, 139)"><rect class="basic label-container" style="fill:#e9f6f1 !important;stroke:#0b7a5a !important" x="-82.9140625" y="-27" width="165.828125" height="54"/><g class="label" style="color:#08402f !important" transform="translate(-52.9140625, -12)"><rect/><foreignObject width="105.828125" height="24"><div style="color: rgb(8, 64, 47) !important; display: table-cell; white-space: nowrap; line-height: 1.5; max-width: 200px; text-align: center;" xmlns="http://www.w3.org/1999/xhtml"><span style="color:#08402f !important" class="nodeLabel"><p>rollUp by entity</p></span></div></foreignObject></g></g><g class="node default data" id="my-svg-flowchart-G-16" data-look="classic" transform="translate(1243.300277709961, 243)"><rect class="basic label-container" style="fill:#e9f6f1 !important;stroke:#0b7a5a !important" x="-67.8046875" y="-27" width="135.609375" height="54"/><g class="label" style="color:#08402f !important" transform="translate(-37.8046875, -12)"><rect/><foreignObject width="75.609375" height="24"><div style="color: rgb(8, 64, 47) !important; display: table-cell; white-space: nowrap; line-height: 1.5; max-width: 200px; text-align: center;" xmlns="http://www.w3.org/1999/xhtml"><span style="color:#08402f !important" class="nodeLabel"><p>group total</p></span></div></foreignObject></g></g><g class="node default ctrl" id="my-svg-flowchart-INV-20" data-look="classic" transform="translate(1508.058090209961, 139)"><rect class="basic label-container" style="fill:#fdf0e3 !important;stroke:#b45309 !important" x="-120.28125" y="-39" width="240.5625" height="78"/><g class="label" style="color:#7a3908 !important" transform="translate(-90.28125, -24)"><rect/><foreignObject width="180.5625" height="48"><div style="color: rgb(122, 57, 8) !important; display: table-cell; white-space: nowrap; line-height: 1.5; max-width: 200px; text-align: center;" xmlns="http://www.w3.org/1999/xhtml"><span style="color:#7a3908 !important" class="nodeLabel"><p>INV-4: both partitions add<br />back to the same whole</p></span></div></foreignObject></g></g></g></g></g><defs><filter id="my-svg-drop-shadow" height="130%" width="130%"><feDropShadow dx="4" dy="4" stdDeviation="0" flood-opacity="0.06" flood-color="#000000"/></filter></defs><defs><filter id="my-svg-drop-shadow-small" height="150%" width="150%"><feDropShadow dx="2" dy="2" stdDeviation="0" flood-opacity="0.06" flood-color="#000000"/></filter></defs><linearGradient id="my-svg-gradient" gradientUnits="objectBoundingBox" x1="0%" y1="0%" x2="100%" y2="0%"><stop offset="0%" stop-color="hsl(0, 0%, 83.3333333333%)" stop-opacity="1"/><stop offset="100%" stop-color="hsl(0, 0%, 88.9215686275%)" stop-opacity="1"/></linearGradient></svg>